<svg xmlns="http://www.w3.org/2000/svg" xmlns:xlink="http://www.w3.org/1999/xlink" width="16" height="10" viewBox="0 0 16 10"><defs><path id="ugwua" d="M1332 1747v-2h-1v2h-2v1h2v2h1v-2h2v-1z"/><path id="ugwub" d="M1328 1747v1c0 2.757-2.243 5-5 5s-5-2.243-5-5 2.243-5 5-5c1.2 0 2.357.432 3.257 1.216l-1.314 1.508A2.955 2.955 0 0 0 1323 1745c-1.654 0-3 1.346-3 3s1.346 3 3 3a3.006 3.006 0 0 0 2.829-2h-2.83v-2z"/></defs><g><g transform="translate(-1318 -1743)"><use fill="#222428" xlink:href="#ugwua"/></g><g transform="translate(-1318 -1743)"><use fill="#222428" xlink:href="#ugwub"/></g></g></svg>