<svg xmlns="http://www.w3.org/2000/svg" xmlns:xlink="http://www.w3.org/1999/xlink" width="16" height="16" viewBox="0 0 16 16"><defs><path id="jrj8a" d="M1250 1744v6a5 5 0 0 1-5 5h-6a5 5 0 0 1-5-5v-6a5 5 0 0 1 5-5h6a5 5 0 0 1 5 5zm-1.5 0c0-1.93-1.57-3.5-3.5-3.5h-6c-1.93 0-3.5 1.57-3.5 3.5v6c0 1.93 1.57 3.5 3.5 3.5h6c1.93 0 3.5-1.57 3.5-3.5z"/><path id="jrj8b" d="M1246 1747a4 4 0 1 1-8 0 4 4 0 0 1 8 0zm-1.5 0c0-1.38-1.122-2.5-2.5-2.5s-2.5 1.12-2.5 2.5c0 1.378 1.122 2.5 2.5 2.5s2.5-1.122 2.5-2.5z"/></defs><g><g transform="translate(-1234 -1739)"><use fill="#222428" xlink:href="#jrj8a"/></g><g transform="translate(-1234 -1739)"><use fill="#222428" xlink:href="#jrj8b"/></g></g></svg>