<svg xmlns="http://www.w3.org/2000/svg" xmlns:xlink="http://www.w3.org/1999/xlink" width="16" height="13" viewBox="0 0 16 13"><defs><path id="liika" d="M1290.356 1744.242c.007.139.012.279.012.424 0 4.334-3.3 9.334-9.336 9.334a9.235 9.235 0 0 1-5.032-1.472c.258.033.516.045.785.045a6.59 6.59 0 0 0 4.067-1.4 3.311 3.311 0 0 1-3.065-2.284c.199.044.41.056.62.056.303 0 .594-.035.86-.108a3.295 3.295 0 0 1-2.627-3.223v-.036c.438.24.955.394 1.482.404a3.285 3.285 0 0 1-1.008-4.384 9.285 9.285 0 0 0 6.76 3.43 3.374 3.374 0 0 1-.075-.747 3.28 3.28 0 0 1 5.674-2.243 6.556 6.556 0 0 0 2.08-.794 3.262 3.262 0 0 1-1.443 1.813 6.84 6.84 0 0 0 1.89-.518 6.545 6.545 0 0 1-1.644 1.703z"/></defs><g><g transform="translate(-1276 -1741)"><use fill="#222428" xlink:href="#liika"/></g></g></svg>