<svg xmlns="http://www.w3.org/2000/svg" xmlns:xlink="http://www.w3.org/1999/xlink" width="16" height="10" viewBox="0 0 16 10"><defs><path id="jdmwa" d="M1173.268 1752.119l-2.137.03s-.459.09-1.063-.324c-.799-.55-1.553-1.975-2.14-1.79-.596.19-.577 1.473-.577 1.473s.005.274-.13.42c-.148.159-.437.19-.437.19h-.956s-2.11.128-3.969-1.807c-2.026-2.111-3.816-6.298-3.816-6.298s-.103-.274.01-.407c.125-.15.468-.16.468-.16l2.286-.013s.216.036.37.149a.711.711 0 0 1 .198.267s.37.935.86 1.78c.954 1.65 1.4 2.012 1.724 1.835.473-.258.331-2.333.331-2.333s.01-.754-.238-1.09c-.19-.26-.55-.335-.71-.356-.129-.017.082-.316.356-.45.411-.201 1.138-.213 1.996-.204.67.007.861.049 1.123.112.788.19.521.925.521 2.688 0 .564-.102 1.359.305 1.622.175.113.604.017 1.675-1.802.508-.862.89-1.876.89-1.876s.082-.18.211-.258c.133-.08.311-.055.311-.055l2.404-.014s.723-.086.84.24c.123.342-.27 1.142-1.253 2.452-1.614 2.15-1.794 1.949-.454 3.193 1.28 1.188 1.546 1.766 1.59 1.838.53.879-.589.948-.589.948z"/></defs><g><g transform="translate(-1158 -1743)"><use fill="#222428" xlink:href="#jdmwa"/></g></g></svg>